<svg width="357" height="462" viewBox="0 0 357 462" fill="none" xmlns="http://www.w3.org/2000/svg">
<path d="M86.78 363.68L93.45 342.17H122.31L84.26 460.72H42.6L4 342.18H32.5L39.35 363.69H86.78V363.68ZM62.98 440.11L80.65 383.77H45.12L62.98 440.11Z" fill="#FAFAFA"/>
<path d="M52.52 192.02V139.23H71.89V192.02H99.97V135.14H122.54V219.39H4V135H26.57V192.02H52.52Z" fill="#FAFAFA"/>
<path d="M251.77 402.89C251.95 382.78 252.31 377.34 254.85 370.28L239.45 356.87L251.95 341.83L264.81 352.7C271.51 343.64 279.12 341.29 301.05 341.29C326.59 341.29 336.92 343.28 344.53 349.81C350.51 355.06 353.77 365.57 353.77 379.52C353.77 391.84 351.05 400.17 345.62 405.07C342.18 408.15 339.1 409.24 331.49 409.96C339.64 417.39 340.91 420.47 340.91 432.24C340.91 444.01 337.47 452.17 331.13 456.34C324.97 460.33 317.18 461.77 302.32 461.77C279.86 461.77 269.35 457.97 264.63 447.82C262.09 442.75 261.73 439.3 261.55 423.9H285.47C285.47 434.41 285.83 435.68 288.01 438.39C289.82 440.56 293.08 441.29 300.87 441.29C312.65 441.29 315.54 439.12 315.54 429.88C315.54 423.36 314.64 421.55 306.84 415.21L274.59 386.95V402.89H251.76H251.77ZM317.72 397.82C320.8 397.64 322.97 396.73 325.15 394.56C327.33 392.39 328.05 388.94 328.05 380.79C328.05 365.21 324.61 362.31 305.4 362.31C290 362.31 288.91 362.49 281.85 367.56L317.72 397.82Z" fill="#FAFAFA"/>
<path d="M160.09 424.82C160.09 438.33 162.76 440.46 179.46 440.46C197.94 440.46 201.85 437.97 201.85 426.6C201.85 419.31 199.72 415.94 194.39 414.52C192.73 414.167 185.503 413.574 172.71 412.74C153.69 411.67 147.12 410.25 141.07 406.34C133.43 401.36 130.76 394.43 130.76 378.79C130.76 363.15 132.89 355.51 138.58 350.17C146.04 343.24 155.46 341.28 179.28 341.28C208.25 341.28 218.56 344.12 224.43 353.54C228.16 359.23 229.41 365.45 229.41 380.2H203.28V378.07C203.28 371.67 202.21 368.12 199.55 365.63C196.71 363.32 194.22 362.96 178.05 362.96C167.21 362.96 164.54 363.49 161.52 365.8C159.03 367.75 157.79 371.49 157.79 377.71C157.79 382.86 158.68 386.06 160.99 387.66C162.883 389.2 171 390.444 185.34 391.39C204.71 392.63 210.22 393.52 216.26 396.54C225.5 401.16 229.23 409.87 229.23 426.75C229.23 440.97 226.21 449.68 219.63 454.48C211.99 459.81 202.39 461.59 180.35 461.59C156.18 461.59 146.4 459.28 140.36 452.17C135.92 446.84 133.78 439.73 133.78 429.6C133.78 428.89 133.78 426.76 133.96 424.8H160.09V424.82Z" fill="#FAFAFA"/>
<path d="M122.55 268.42V295.79H27.64V327.78H4V234.82H27.64V268.41H122.55V268.42Z" fill="#FAFAFA"/>
</svg>
