<svg width="357" height="462" viewBox="0 0 357 462" fill="none" xmlns="http://www.w3.org/2000/svg">
<path d="M73.32 36.79C73.32 23.28 70.65 21.15 53.95 21.15C35.47 21.15 31.56 23.64 31.56 35.01C31.56 42.3 33.69 45.67 39.02 47.09C40.68 47.4433 47.9067 48.0367 60.7 48.87C79.72 49.94 86.29 51.36 92.34 55.27C99.98 60.25 102.65 67.18 102.65 82.82C102.65 98.46 100.52 106.1 94.83 111.44C87.37 118.37 77.95 120.33 54.13 120.33C25.16 120.33 14.85 117.49 8.98 108.07C5.25 102.38 4 96.16 4 81.41H30.13V83.54C30.13 89.94 31.2 93.49 33.86 95.98C36.7 98.29 39.19 98.65 55.36 98.65C66.2 98.65 68.87 98.12 71.89 95.81C74.38 93.86 75.62 90.12 75.62 83.9C75.62 78.75 74.73 75.55 72.42 73.95C70.5267 72.41 62.41 71.1667 48.07 70.22C28.7 68.98 23.19 68.09 17.15 65.07C7.91 60.43 4.18 51.72 4.18 34.84C4.18 20.62 7.2 11.91 13.78 7.11C21.42 1.78 31.02 0 53.05 0C77.22 0 87 2.31 93.04 9.42C97.48 14.75 99.62 21.86 99.62 31.99C99.62 32.7 99.62 34.83 99.44 36.79H73.31H73.32Z" fill="#FAFAFA"/>
<path d="M222.12 119.44H194.75V70.9196H146.76V119.44H119.39V0.889648H146.76V47.4596H194.75V0.889648H222.12V119.44Z" fill="#FAFAFA"/>
<path d="M353.77 134.81V181.91C353.77 192.103 353.71 198.503 353.59 201.11C353.06 212.48 348.26 221.73 340.44 226.7C333.51 230.96 325.87 232.39 310.76 232.39C292.81 232.39 282.68 229.37 276.99 222.44C272.72 217.29 270.24 210.71 270.06 203.6C269.88 202.53 269.88 198.8 269.53 184.76V162.19H235.23V134.82H353.78L353.77 134.81ZM293.16 184.93C293.16 201.99 295.47 204.48 311.64 204.48C323.73 204.48 327.81 203.06 329.95 197.9C331.02 195.06 331.19 193.81 331.19 186.17V162.17H293.15V184.92L293.16 184.93Z" fill="#FAFAFA"/>
<path d="M305.25 270.57V323.36H285.88V270.57H257.8V327.44H235.23V243.19H353.78V327.58H331.21V270.56H305.26L305.25 270.57Z" fill="#FAFAFA"/>
<path d="M270.75 97.9296L264.08 119.44H235.22L273.28 0.889648H314.94L353.54 119.44H325.04L318.19 97.9296H270.76H270.75ZM294.56 21.5096L276.89 77.8496H312.42L294.56 21.5096Z" fill="#FAFAFA"/>
</svg>
